{"title":"Alien Siege 2018 720p BluRay x264 [MW]","magnet":"magnet:?xt=urn:btih:db1f59ed7816accafadb614997e4e396a117eff8&dn=Alien+Siege+2018+720p+BluRay+x264+%5BMW%5D&tr=udp%3A%2F%2Ftracker.leechers-paradise.org%3A6969&tr=udp%3A%2F%2Fzer0day.ch%3A1337&tr=udp%3A%2F%2Fopen.demonii.com%3A1337&tr=udp%3A%2F%2Ftracker.coppersurfer.tk%3A6969&tr=udp%3A%2F%2Fexodus.desync.com%3A6969","uploader":"MFreaky","categoryP":"video","categoryS":"hd___movies","size":"834664606","seeders":"26","leechers":"11","description":" <a href=\"https://pichub.site/image/DTA7t\" rel=\"nofollow\" target=\"_NEW\">https://pichub.site/image/DTA7t</a> <a href=\"\nhttps://pichub.site/image/DTmOy\" rel=\"nofollow\" target=\"_NEW\">\nhttps://pichub.site/image/DTmOy</a> <a href=\"\nhttps://pichub.site/image/DTKZp\" rel=\"nofollow\" target=\"_NEW\">\nhttps://pichub.site/image/DTKZp</a> <a href=\"\nhttps://pichub.site/image/DTuAb\" rel=\"nofollow\" target=\"_NEW\">\nhttps://pichub.site/image/DTuAb</a> <a href=\"\nhttps://pichub.site/image/DTG60\" rel=\"nofollow\" target=\"_NEW\">\nhttps://pichub.site/image/DTG60</a>\r\n\r\nIMDB <a href=\"\nhttps://www.imdb.com/title/tt8235966/\" rel=\"nofollow\" target=\"_NEW\">\nhttps://www.imdb.com/title/tt8235966/</a>\r\n\r\nVideo\r\nFormat                                   : AVC\r\nFormat/Info                              : Advanced Video Codec\r\nFormat profile                           : High@L4.1\r\nFormat settings                          : CABAC / 4 Ref Frames\r\nFormat settings, CABAC                   : Yes\r\nFormat settings, RefFrames               : 4 frames\r\nCodec ID                                 : V_MPEG4/ISO/AVC\r\nDuration                                 : 1 h 25 min\r\nBit rate                                 : 1 200 kb/s\r\nWidth                                    : 1 280 pixels\r\nHeight                                   : 720 pixels\r\nDisplay aspect ratio                     : 16:9\r\nFrame rate mode                          : Constant\r\nFrame rate                               : 23.976 (24000/1001) FPS\r\nColor space                              : YUV\r\nChroma subsampling                       : 4:2:0\r\nBit depth                                : 8 bits\r\nScan type                                : Progressive\r\nBits/(Pixel*Frame)                       : 0.054\r\nStream size                              : 717 MiB (90%)\r\nWriting library                          : x264 core 155 r2901 7d0ff22\r\n\r\nAudio\r\nFormat                                   : AAC\r\nFormat/Info                              : Advanced Audio Codec\r\nFormat profile                           : HE-AAC / LC\r\nFormat settings                          : Explicit\r\nCodec ID                                 : A_AAC-2\r\nDuration                                 : 1 h 25 min\r\nBit rate                                 : 127 kb/s\r\nChannel(s)                               : 2 channels\r\nChannel positions                        : Front: L R\r\nSampling rate                            : 48.0 kHz / 24.0 kHz\r\nFrame rate                               : 23.438 FPS (1024 SPF)\r\nCompression mode                         : Lossy\r\nStream size                              : 77.4 MiB (10%)\r\nLanguage                                 : English","last_updated":"2018-09-11T12:25:17.992Z","parsed":{"xt":"urn:btih:db1f59ed7816accafadb614997e4e396a117eff8","dn":"Alien Siege 2018 720p BluRay x264 [MW]","tr":["udp://exodus.desync.com:6969","udp://open.demonii.com:1337","udp://tracker.coppersurfer.tk:6969","udp://tracker.leechers-paradise.org:6969","udp://zer0day.ch:1337"],"infoHash":"db1f59ed7816accafadb614997e4e396a117eff8","infoHashBuffer":{"type":"Buffer","data":[219,31,89,237,120,22,172,202,250,219,97,73,151,228,227,150,161,23,239,248]},"name":"Alien Siege 2018 720p BluRay x264 [MW]","announce":["udp://exodus.desync.com:6969","udp://open.demonii.com:1337","udp://tracker.coppersurfer.tk:6969","udp://tracker.leechers-paradise.org:6969","udp://zer0day.ch:1337"],"urlList":[]}}